<svg width="1024" height="1024" viewBox="0 0 1024 1024" fill="none" xmlns="http://www.w3.org/2000/svg" role="img" aria-label="One Person Lab app icon">
  <title>One Person Lab</title>
  <defs>
    <linearGradient id="card" x1="168" y1="118" x2="856" y2="906" gradientUnits="userSpaceOnUse">
      <stop offset="0" stop-color="#FFFFFF"/>
      <stop offset="0.58" stop-color="#F4FAFF"/>
      <stop offset="1" stop-color="#E3F1FF"/>
    </linearGradient>
    <filter id="cardShadow" x="96" y="88" width="832" height="848" filterUnits="userSpaceOnUse" color-interpolation-filters="sRGB">
      <feDropShadow dx="0" dy="24" stdDeviation="36" flood-color="#0E385D" flood-opacity="0.16"/>
      <feDropShadow dx="0" dy="2" stdDeviation="6" flood-color="#0E385D" flood-opacity="0.10"/>
    </filter>
  </defs>
  <rect x="132" y="112" width="760" height="800" rx="178" fill="url(#card)" filter="url(#cardShadow)"/>
  <path d="M512 236C373.929 236 262 347.929 262 486C262 624.071 373.929 736 512 736C650.071 736 762 624.071 762 486" stroke="#0E385D" stroke-width="40" stroke-linecap="round"/>
  <path d="M512 304C411.484 304 330 385.484 330 486C330 586.516 411.484 668 512 668C612.516 668 694 586.516 694 486" stroke="#2BB8B0" stroke-width="34" stroke-linecap="round"/>
  <circle cx="512" cy="486" r="86" fill="#0E385D"/>
  <circle cx="512" cy="486" r="38" fill="#7CE8E0"/>
  <rect x="326" y="778" width="372" height="36" rx="18" fill="#0E385D" fill-opacity="0.16"/>
  <rect x="384" y="762" width="256" height="36" rx="18" fill="#0E385D" fill-opacity="0.26"/>
  <circle cx="346" cy="354" r="30" fill="#2BB8B0"/>
  <circle cx="690" cy="354" r="30" fill="#F3B44B"/>
  <circle cx="690" cy="638" r="30" fill="#7CA7FF"/>
  <path d="M374 374L456 448" stroke="#0E385D" stroke-width="22" stroke-linecap="round"/>
  <path d="M650 374L568 448" stroke="#0E385D" stroke-width="22" stroke-linecap="round"/>
  <path d="M650 620L568 532" stroke="#0E385D" stroke-width="22" stroke-linecap="round"/>
</svg>
