<svg width="1024" height="1024" viewBox="0 0 1024 1024" fill="none" xmlns="http://www.w3.org/2000/svg" role="img" aria-label="One Person Lab app icon">
  <title>One Person Lab</title>
  <defs>
    <linearGradient id="bg" x1="120" y1="72" x2="904" y2="980" gradientUnits="userSpaceOnUse">
      <stop offset="0" stop-color="#FFFFFF"/>
      <stop offset="0.55" stop-color="#F7FBFF"/>
      <stop offset="1" stop-color="#E2F1FF"/>
    </linearGradient>
  </defs>
  <rect width="1024" height="1024" fill="url(#bg)"/>
  <path d="M512 154C328.642 154 180 302.642 180 486C180 669.358 328.642 818 512 818C695.358 818 844 669.358 844 486" stroke="#0E385D" stroke-width="52" stroke-linecap="round"/>
  <path d="M512 248C380.556 248 274 354.556 274 486C274 617.444 380.556 724 512 724C643.444 724 750 617.444 750 486" stroke="#2BB8B0" stroke-width="46" stroke-linecap="round"/>
  <circle cx="512" cy="486" r="112" fill="#0E385D"/>
  <circle cx="512" cy="486" r="50" fill="#7CE8E0"/>
  <circle cx="320" cy="324" r="40" fill="#2BB8B0"/>
  <circle cx="724" cy="324" r="40" fill="#F3B44B"/>
  <circle cx="724" cy="664" r="40" fill="#7CA7FF"/>
  <path d="M358 358L450 444" stroke="#0E385D" stroke-width="30" stroke-linecap="round"/>
  <path d="M688 358L590 448" stroke="#0E385D" stroke-width="30" stroke-linecap="round"/>
  <path d="M688 632L590 532" stroke="#0E385D" stroke-width="30" stroke-linecap="round"/>
  <rect x="278" y="862" width="468" height="40" rx="20" fill="#0E385D" fill-opacity="0.14"/>
  <rect x="368" y="842" width="288" height="40" rx="20" fill="#0E385D" fill-opacity="0.25"/>
</svg>
