<svg xmlns="http://www.w3.org/2000/svg" viewBox="0 0 320 320" role="img" aria-label="Med Auto Science logo">
  <title>Med Auto Science</title>
  <defs>
    <linearGradient id="bg" x1="28" y1="20" x2="292" y2="300" gradientUnits="userSpaceOnUse">
      <stop offset="0" stop-color="#F7FCFF"/>
      <stop offset="1" stop-color="#E7F8F7"/>
    </linearGradient>
    <linearGradient id="panel" x1="82" y1="52" x2="238" y2="270" gradientUnits="userSpaceOnUse">
      <stop offset="0" stop-color="#FFFFFF"/>
      <stop offset="1" stop-color="#DDF2FF"/>
    </linearGradient>
    <filter id="shadow" x="-20%" y="-20%" width="140%" height="140%" color-interpolation-filters="sRGB">
      <feDropShadow dx="0" dy="10" stdDeviation="13" flood-color="#2A6F9E" flood-opacity="0.16"/>
    </filter>
  </defs>
  <rect x="16" y="16" width="288" height="288" rx="64" fill="url(#bg)" stroke="#9CCFE6" stroke-width="2.5"/>
  <g filter="url(#shadow)">
    <rect x="76" y="48" width="168" height="224" rx="38" fill="url(#panel)" stroke="#2A6F9E" stroke-width="3"/>
    <path d="M116 102H204" stroke="#9BB8CF" stroke-width="9" stroke-linecap="round"/>
    <path d="M116 132H188" stroke="#BDD2E3" stroke-width="9" stroke-linecap="round"/>
    <path d="M116 212H200" stroke="#BDD2E3" stroke-width="9" stroke-linecap="round"/>
    <path d="M104 174C122 174 122 146 140 146C158 146 158 202 176 202C194 202 194 166 216 166" fill="none" stroke="#23A7A0" stroke-width="12" stroke-linecap="round" stroke-linejoin="round"/>
    <circle cx="104" cy="174" r="9" fill="#23A7A0"/>
    <circle cx="140" cy="146" r="9" fill="#23A7A0"/>
    <circle cx="176" cy="202" r="9" fill="#23A7A0"/>
    <circle cx="216" cy="166" r="9" fill="#23A7A0"/>
    <rect x="128" y="236" width="64" height="14" rx="7" fill="#2A6F9E" fill-opacity="0.18"/>
  </g>
  <circle cx="68" cy="82" r="10" fill="#2A6F9E" fill-opacity="0.18"/>
  <circle cx="254" cy="246" r="12" fill="#23A7A0" fill-opacity="0.20"/>
</svg>
